<svg width="619" height="632" viewBox="0 0 619 632" fill="none" xmlns="http://www.w3.org/2000/svg">
<path d="M337.494 0.763029C492.854 10.8608 628.565 128.255 618.47 283.659C606.472 468.363 481.18 643.418 296.528 631.416C109.045 619.231 -1.26786 431.706 10.9143 244.17C21.2271 85.4115 178.781 -9.55268 337.494 0.763029Z" fill="#282455"/>
<path d="M44.2824 147.887H96.9412V167.552H44.2824V147.887ZM46.1575 192.837H105.692V213.127H21V103.873H103.66V124.163H46.1575V192.837Z" fill="#E94E3B"/>
<path d="M178.179 215C169.741 215 161.876 213.647 154.584 210.942C147.397 208.133 141.146 204.179 135.834 199.08C130.521 193.982 126.354 187.999 123.333 181.131C120.416 174.264 118.958 166.72 118.958 158.5C118.958 150.28 120.416 142.736 123.333 135.869C126.354 129.001 130.521 123.018 135.834 117.92C141.25 112.821 147.553 108.919 154.741 106.214C161.929 103.405 169.793 102 178.336 102C187.815 102 196.357 103.665 203.962 106.994C211.671 110.22 218.129 115.006 223.338 121.354L207.087 136.337C203.337 132.071 199.17 128.897 194.586 126.816C190.003 124.631 185.003 123.539 179.586 123.539C174.481 123.539 169.794 124.371 165.522 126.036C161.251 127.701 157.553 130.094 154.428 133.215C151.303 136.337 148.855 140.031 147.084 144.297C145.417 148.563 144.584 153.297 144.584 158.5C144.584 163.703 145.417 168.437 147.084 172.703C148.855 176.969 151.303 180.663 154.428 183.785C157.553 186.906 161.251 189.299 165.522 190.964C169.794 192.629 174.481 193.461 179.586 193.461C185.003 193.461 190.003 192.421 194.586 190.34C199.17 188.155 203.337 184.877 207.087 180.507L223.338 195.49C218.129 201.837 211.671 206.676 203.962 210.006C196.357 213.335 187.763 215 178.179 215Z" fill="#E94E3B"/>
<path d="M291.271 215C282.625 215 274.603 213.595 267.207 210.786C259.915 207.977 253.561 204.023 248.144 198.924C242.831 193.826 238.664 187.843 235.643 180.975C232.726 174.108 231.268 166.616 231.268 158.5C231.268 150.384 232.726 142.892 235.643 136.025C238.664 129.157 242.883 123.174 248.3 118.076C253.717 112.977 260.071 109.023 267.363 106.214C274.655 103.405 282.572 102 291.115 102C299.761 102 307.678 103.405 314.866 106.214C322.158 109.023 328.46 112.977 333.773 118.076C339.19 123.174 343.409 129.157 346.43 136.025C349.451 142.788 350.961 150.28 350.961 158.5C350.961 166.616 349.451 174.16 346.43 181.131C343.409 187.999 339.19 193.982 333.773 199.08C328.46 204.075 322.158 207.977 314.866 210.786C307.678 213.595 299.813 215 291.271 215ZM291.115 193.461C296.011 193.461 300.49 192.629 304.553 190.964C308.72 189.299 312.366 186.906 315.491 183.785C318.616 180.663 321.012 176.969 322.679 172.703C324.45 168.437 325.335 163.703 325.335 158.5C325.335 153.297 324.45 148.563 322.679 144.297C321.012 140.031 318.616 136.337 315.491 133.215C312.47 130.094 308.876 127.701 304.709 126.036C300.542 124.371 296.011 123.539 291.115 123.539C286.218 123.539 281.687 124.371 277.52 126.036C273.457 127.701 269.864 130.094 266.738 133.215C263.613 136.337 261.165 140.031 259.394 144.297C257.728 148.563 256.894 153.297 256.894 158.5C256.894 163.599 257.728 168.333 259.394 172.703C261.165 176.969 263.561 180.663 266.582 183.785C269.707 186.906 273.353 189.299 277.52 190.964C281.687 192.629 286.218 193.461 291.115 193.461Z" fill="#E94E3B"/>
<path d="M369.986 213.127V103.873H390.924L455.459 182.536H445.302V103.873H470.303V213.127H449.521L384.83 134.464H394.987V213.127H369.986Z" fill="#E94E3B"/>
<path d="M549.31 215C540.663 215 532.642 213.595 525.246 210.786C517.954 207.977 511.599 204.023 506.182 198.924C500.87 193.826 496.703 187.843 493.682 180.975C490.765 174.108 489.307 166.616 489.307 158.5C489.307 150.384 490.765 142.892 493.682 136.025C496.703 129.157 500.922 123.174 506.339 118.076C511.756 112.977 518.11 109.023 525.402 106.214C532.694 103.405 540.611 102 549.153 102C557.8 102 565.717 103.405 572.904 106.214C580.197 109.023 586.499 112.977 591.812 118.076C597.229 123.174 601.448 129.157 604.469 136.025C607.49 142.788 609 150.28 609 158.5C609 166.616 607.49 174.16 604.469 181.131C601.448 187.999 597.229 193.982 591.812 199.08C586.499 204.075 580.197 207.977 572.904 210.786C565.717 213.595 557.852 215 549.31 215ZM549.153 193.461C554.049 193.461 558.529 192.629 562.591 190.964C566.758 189.299 570.404 186.906 573.53 183.785C576.655 180.663 579.051 176.969 580.717 172.703C582.488 168.437 583.374 163.703 583.374 158.5C583.374 153.297 582.488 148.563 580.717 144.297C579.051 140.031 576.655 136.337 573.53 133.215C570.509 130.094 566.915 127.701 562.748 126.036C558.581 124.371 554.049 123.539 549.153 123.539C544.257 123.539 539.726 124.371 535.559 126.036C531.496 127.701 527.902 130.094 524.777 133.215C521.652 136.337 519.204 140.031 517.433 144.297C515.766 148.563 514.933 153.297 514.933 158.5C514.933 163.599 515.766 168.333 517.433 172.703C519.204 176.969 521.6 180.663 524.621 183.785C527.746 186.906 531.392 189.299 535.559 190.964C539.726 192.629 544.257 193.461 549.153 193.461Z" fill="#E94E3B"/>
<path d="M43.4605 474C31.1688 474 20.8513 470.007 12.5081 462.022C4.16488 454.036 -0.00448225 443.808 3.6159e-06 431.338C3.6159e-06 418.649 4.17061 408.475 12.5118 400.818C20.853 393.16 31.1705 389.332 43.4643 389.332C55.756 389.332 66.0735 393.161 74.4167 400.818C82.7599 408.475 86.9305 418.648 86.9285 431.338C86.9285 443.807 82.7579 454.035 74.4167 462.022C66.0755 470.008 55.7568 474.001 43.4605 474ZM112.274 470.721V241H176.148L268.338 390.974H234.754L324.31 241H388.184L388.843 470.718H318.054L317.396 347.327H328.59L267.35 450.044H233.108L169.234 347.327H183.065V470.718L112.274 470.721ZM497.497 326.324H600.223V382.113H497.497V326.324ZM502.765 412.305H618V470.719H426.379V241H613.72V299.414H502.763L502.765 412.305Z" fill="white"/>
<path d="M9.03625 529C7.229 529 5.49124 528.696 3.82301 528.087C2.17795 527.454 0.903624 526.651 0 525.677L1.0079 523.596C1.86518 524.472 3.01209 525.214 4.44862 525.823C5.90832 526.407 7.43753 526.699 9.03625 526.699C10.5655 526.699 11.805 526.505 12.755 526.115C13.7281 525.701 14.4348 525.154 14.8751 524.472C15.3385 523.79 15.5701 523.036 15.5701 522.208C15.5701 521.21 15.2921 520.406 14.736 519.798C14.2031 519.189 13.4964 518.714 12.616 518.374C11.7355 518.008 10.7624 517.692 9.69659 517.424C8.63078 517.156 7.56497 516.876 6.49915 516.584C5.43334 516.268 4.44862 515.854 3.545 515.343C2.66454 514.831 1.94627 514.162 1.39019 513.334C0.857283 512.482 0.590838 511.375 0.590838 510.011C0.590838 508.745 0.903613 507.589 1.5292 506.542C2.17795 505.471 3.16267 504.619 4.48336 503.986C5.80404 503.329 7.49547 503 9.55758 503C10.9246 503 12.28 503.207 13.6239 503.621C14.9677 504.01 16.1262 504.558 17.0993 505.264L16.2305 507.419C15.1878 506.688 14.0757 506.153 12.894 505.812C11.7355 505.471 10.6118 505.301 9.52282 505.301C8.06312 505.301 6.85828 505.507 5.90832 505.921C4.95835 506.335 4.25168 506.895 3.78828 507.601C3.34805 508.283 3.12794 509.062 3.12794 509.938C3.12794 510.936 3.39438 511.74 3.92729 512.348C4.48336 512.957 5.20164 513.432 6.08209 513.772C6.98572 514.113 7.97044 514.418 9.03625 514.685C10.1021 514.953 11.1563 515.245 12.1989 515.562C13.2647 515.878 14.2379 516.292 15.1183 516.803C16.022 517.29 16.7402 517.948 17.2731 518.775C17.8292 519.603 18.1072 520.686 18.1072 522.025C18.1072 523.267 17.7829 524.423 17.1341 525.494C16.4854 526.541 15.4891 527.393 14.1452 528.051C12.8245 528.683 11.1215 529 9.03625 529Z" fill="white"/>
<path d="M26.0047 514.649H38.864V516.949H26.0047V514.649ZM26.2828 526.444H40.9145V528.781H23.7109V503.219H40.3932V505.556H26.2828V526.444Z" fill="white"/>
<path d="M56.7608 529C53.656 529 51.2116 528.063 49.4276 526.188C47.6435 524.314 46.7514 521.538 46.7514 517.862V503.219H49.3233V517.753C49.3233 520.772 49.972 522.999 51.2695 524.435C52.5671 525.872 54.3975 526.59 56.7608 526.59C59.1473 526.59 60.9893 525.872 62.2868 524.435C63.5843 522.999 64.2331 520.772 64.2331 517.753V503.219H66.7354V517.862C66.7354 521.538 65.8434 524.314 64.0593 526.188C62.2984 528.063 59.8656 529 56.7608 529Z" fill="white"/>
<path d="M83.5815 528.781V503.219H93.4866C96.0816 503.219 98.3522 503.767 100.298 504.862C102.268 505.934 103.797 507.431 104.886 509.354C105.975 511.277 106.52 513.493 106.52 516C106.52 518.507 105.975 520.723 104.886 522.646C103.797 524.569 102.268 526.079 100.298 527.174C98.3522 528.245 96.0816 528.781 93.4866 528.781H83.5815ZM86.1533 526.444H93.3476C95.5024 526.444 97.3675 526.006 98.9431 525.129C100.542 524.228 101.781 522.999 102.662 521.441C103.542 519.859 103.983 518.045 103.983 516C103.983 513.931 103.542 512.117 102.662 510.559C101.781 509.001 100.542 507.784 98.9431 506.907C97.3675 506.007 95.5024 505.556 93.3476 505.556H86.1533V526.444Z" fill="white"/>
<path d="M112.295 528.781V503.219H114.867V528.781H112.295Z" fill="white"/>
<path d="M122.782 528.781V503.219H124.902L141.689 525.421H140.577V503.219H143.114V528.781H140.994L124.242 506.579H125.354V528.781H122.782Z" fill="white"/>
<path d="M168.849 503.219H171.386V528.781H168.849V503.219ZM153.626 528.781H151.055V503.219H153.626V528.781ZM169.092 516.986H153.348V514.612H169.092V516.986Z" fill="white"/>
<path d="M181.621 514.649H194.48V516.949H181.621V514.649ZM181.899 526.444H196.53V528.781H179.327V503.219H196.009V505.556H181.899V526.444Z" fill="white"/>
<path d="M202.576 528.781V503.219H205.148V528.781H202.576Z" fill="white"/>
<path d="M213.063 528.781V503.219H222.169C224.231 503.219 226.004 503.572 227.487 504.278C228.969 504.96 230.105 505.958 230.893 507.272C231.704 508.563 232.109 510.133 232.109 511.983C232.109 513.785 231.704 515.343 230.893 516.657C230.105 517.948 228.969 518.946 227.487 519.652C226.004 520.333 224.231 520.674 222.169 520.674H214.488L215.635 519.433V528.781H213.063ZM229.676 528.781L223.42 519.506H226.201L232.491 528.781H229.676ZM215.635 519.652L214.488 518.374H222.1C224.532 518.374 226.374 517.814 227.626 516.694C228.9 515.574 229.537 514.004 229.537 511.983C229.537 509.938 228.9 508.356 227.626 507.236C226.374 506.116 224.532 505.556 222.1 505.556H214.488L215.635 504.278V519.652Z" fill="white"/>
<path d="M248.814 529C246.984 529 245.281 528.683 243.705 528.051C242.153 527.393 240.797 526.48 239.639 525.312C238.504 524.119 237.611 522.743 236.963 521.185C236.337 519.603 236.024 517.875 236.024 516C236.024 514.125 236.337 512.409 236.963 510.851C237.611 509.269 238.504 507.893 239.639 506.725C240.797 505.532 242.153 504.619 243.705 503.986C245.258 503.329 246.96 503 248.814 503C250.645 503 252.336 503.329 253.888 503.986C255.441 504.619 256.784 505.52 257.92 506.688C259.078 507.857 259.97 509.232 260.596 510.815C261.245 512.397 261.569 514.125 261.569 516C261.569 517.875 261.245 519.603 260.596 521.185C259.97 522.768 259.078 524.143 257.92 525.312C256.784 526.48 255.441 527.393 253.888 528.051C252.336 528.683 250.645 529 248.814 529ZM248.814 526.59C250.274 526.59 251.618 526.334 252.846 525.823C254.097 525.287 255.174 524.545 256.078 523.596C257.005 522.622 257.723 521.502 258.233 520.236C258.742 518.946 258.997 517.534 258.997 516C258.997 514.466 258.742 513.066 258.233 511.801C257.723 510.51 257.005 509.39 256.078 508.441C255.174 507.467 254.097 506.725 252.846 506.213C251.618 505.678 250.274 505.41 248.814 505.41C247.354 505.41 245.999 505.678 244.748 506.213C243.497 506.725 242.408 507.467 241.481 508.441C240.577 509.39 239.859 510.51 239.326 511.801C238.816 513.066 238.561 514.466 238.561 516C238.561 517.509 238.816 518.909 239.326 520.199C239.859 521.49 240.577 522.622 241.481 523.596C242.408 524.545 243.497 525.287 244.748 525.823C245.999 526.334 247.354 526.59 248.814 526.59Z" fill="white"/>
<path d="M276.43 528.781V503.219H278.55L295.336 525.421H294.224V503.219H296.761V528.781H294.641L277.889 506.579H279.002V528.781H276.43Z" fill="white"/>
<path d="M315.337 529C313.506 529 311.804 528.683 310.228 528.051C308.676 527.393 307.32 526.48 306.162 525.312C305.026 524.119 304.134 522.743 303.486 521.185C302.86 519.603 302.547 517.875 302.547 516C302.547 514.125 302.86 512.409 303.486 510.851C304.134 509.269 305.026 507.893 306.162 506.725C307.32 505.532 308.676 504.619 310.228 503.986C311.78 503.329 313.483 503 315.337 503C317.167 503 318.859 503.329 320.411 503.986C321.963 504.619 323.307 505.52 324.443 506.688C325.601 507.857 326.493 509.232 327.119 510.815C327.768 512.397 328.092 514.125 328.092 516C328.092 517.875 327.768 519.603 327.119 521.185C326.493 522.768 325.601 524.143 324.443 525.312C323.307 526.48 321.963 527.393 320.411 528.051C318.859 528.683 317.167 529 315.337 529ZM315.337 526.59C316.797 526.59 318.14 526.334 319.368 525.823C320.62 525.287 321.697 524.545 322.601 523.596C323.527 522.622 324.246 521.502 324.755 520.236C325.265 518.946 325.52 517.534 325.52 516C325.52 514.466 325.265 513.066 324.755 511.801C324.246 510.51 323.527 509.39 322.601 508.441C321.697 507.467 320.62 506.725 319.368 506.213C318.14 505.678 316.797 505.41 315.337 505.41C313.877 505.41 312.522 505.678 311.271 506.213C310.019 506.725 308.93 507.467 308.004 508.441C307.1 509.39 306.382 510.51 305.849 511.801C305.339 513.066 305.084 514.466 305.084 516C305.084 517.509 305.339 518.909 305.849 520.199C306.382 521.49 307.1 522.622 308.004 523.596C308.93 524.545 310.019 525.287 311.271 525.823C312.522 526.334 313.877 526.59 315.337 526.59Z" fill="white"/>
<path d="M349.66 529C347.853 529 346.115 528.696 344.447 528.087C342.802 527.454 341.528 526.651 340.624 525.677L341.632 523.596C342.489 524.472 343.636 525.214 345.073 525.823C346.532 526.407 348.061 526.699 349.66 526.699C351.189 526.699 352.429 526.505 353.379 526.115C354.352 525.701 355.059 525.154 355.499 524.472C355.962 523.79 356.194 523.036 356.194 522.208C356.194 521.21 355.916 520.406 355.36 519.798C354.827 519.189 354.12 518.714 353.24 518.374C352.36 518.008 351.386 517.692 350.321 517.424C349.255 517.156 348.189 516.876 347.123 516.584C346.057 516.268 345.073 515.854 344.169 515.343C343.289 514.831 342.57 514.162 342.014 513.334C341.481 512.482 341.215 511.375 341.215 510.011C341.215 508.745 341.528 507.589 342.153 506.542C342.802 505.471 343.787 504.619 345.107 503.986C346.428 503.329 348.119 503 350.182 503C351.549 503 352.904 503.207 354.248 503.621C355.592 504.01 356.75 504.558 357.723 505.264L356.854 507.419C355.812 506.688 354.7 506.153 353.518 505.812C352.36 505.471 351.236 505.301 350.147 505.301C348.687 505.301 347.482 505.507 346.532 505.921C345.582 506.335 344.876 506.895 344.412 507.601C343.972 508.283 343.752 509.062 343.752 509.938C343.752 510.936 344.018 511.74 344.551 512.348C345.107 512.957 345.826 513.432 346.706 513.772C347.61 514.113 348.594 514.418 349.66 514.685C350.726 514.953 351.78 515.245 352.823 515.562C353.889 515.878 354.862 516.292 355.742 516.803C356.646 517.29 357.364 517.948 357.897 518.775C358.453 519.603 358.731 520.686 358.731 522.025C358.731 523.267 358.407 524.423 357.758 525.494C357.109 526.541 356.113 527.393 354.769 528.051C353.449 528.683 351.746 529 349.66 529Z" fill="white"/>
<path d="M366.629 514.649H379.488V516.949H366.629V514.649ZM366.907 526.444H381.538V528.781H364.335V503.219H381.017V505.556H366.907V526.444Z" fill="white"/>
<path d="M397.385 529C394.28 529 391.836 528.063 390.052 526.188C388.267 524.314 387.375 521.538 387.375 517.862V503.219H389.947V517.753C389.947 520.772 390.596 522.999 391.894 524.435C393.191 525.872 395.021 526.59 397.385 526.59C399.771 526.59 401.613 525.872 402.911 524.435C404.208 522.999 404.857 520.772 404.857 517.753V503.219H407.359V517.862C407.359 521.538 406.467 524.314 404.683 526.188C402.922 528.063 400.49 529 397.385 529Z" fill="white"/>
<path d="M434.771 529C432.94 529 431.249 528.683 429.697 528.051C428.144 527.393 426.8 526.48 425.665 525.312C424.53 524.143 423.638 522.768 422.989 521.185C422.363 519.603 422.051 517.875 422.051 516C422.051 514.125 422.363 512.397 422.989 510.815C423.638 509.232 424.53 507.857 425.665 506.688C426.824 505.52 428.179 504.619 429.731 503.986C431.284 503.329 432.975 503 434.806 503C436.567 503 438.223 503.316 439.776 503.949C441.328 504.558 442.637 505.483 443.703 506.725L442.069 508.441C441.073 507.37 439.973 506.603 438.768 506.14C437.563 505.654 436.265 505.41 434.875 505.41C433.415 505.41 432.06 505.678 430.809 506.213C429.558 506.725 428.469 507.467 427.542 508.441C426.615 509.39 425.885 510.51 425.352 511.801C424.843 513.066 424.588 514.466 424.588 516C424.588 517.534 424.843 518.946 425.352 520.236C425.885 521.502 426.615 522.622 427.542 523.596C428.469 524.545 429.558 525.287 430.809 525.823C432.06 526.334 433.415 526.59 434.875 526.59C436.265 526.59 437.563 526.346 438.768 525.86C439.973 525.373 441.073 524.594 442.069 523.522L443.703 525.239C442.637 526.48 441.328 527.418 439.776 528.051C438.223 528.683 436.555 529 434.771 529Z" fill="white"/>
<path d="M459.311 529C457.481 529 455.778 528.683 454.202 528.051C452.65 527.393 451.295 526.48 450.136 525.312C449.001 524.119 448.109 522.743 447.46 521.185C446.834 519.603 446.522 517.875 446.522 516C446.522 514.125 446.834 512.409 447.46 510.851C448.109 509.269 449.001 507.893 450.136 506.725C451.295 505.532 452.65 504.619 454.202 503.986C455.755 503.329 457.458 503 459.311 503C461.142 503 462.833 503.329 464.385 503.986C465.938 504.619 467.282 505.52 468.417 506.688C469.576 507.857 470.468 509.232 471.093 510.815C471.742 512.397 472.066 514.125 472.066 516C472.066 517.875 471.742 519.603 471.093 521.185C470.468 522.768 469.576 524.143 468.417 525.312C467.282 526.48 465.938 527.393 464.385 528.051C462.833 528.683 461.142 529 459.311 529ZM459.311 526.59C460.771 526.59 462.115 526.334 463.343 525.823C464.594 525.287 465.671 524.545 466.575 523.596C467.502 522.622 468.22 521.502 468.73 520.236C469.24 518.946 469.494 517.534 469.494 516C469.494 514.466 469.24 513.066 468.73 511.801C468.22 510.51 467.502 509.39 466.575 508.441C465.671 507.467 464.594 506.725 463.343 506.213C462.115 505.678 460.771 505.41 459.311 505.41C457.852 505.41 456.496 505.678 455.245 506.213C453.994 506.725 452.905 507.467 451.978 508.441C451.074 509.39 450.356 510.51 449.823 511.801C449.313 513.066 449.059 514.466 449.059 516C449.059 517.509 449.313 518.909 449.823 520.199C450.356 521.49 451.074 522.622 451.978 523.596C452.905 524.545 453.994 525.287 455.245 525.823C456.496 526.334 457.852 526.59 459.311 526.59Z" fill="white"/>
<path d="M477.831 528.781V503.219H479.951L496.738 525.421H495.625V503.219H498.163V528.781H496.043L479.291 506.579H480.403V528.781H477.831Z" fill="white"/>
<path d="M510.83 528.781V505.556H502.28V503.219H521.951V505.556H513.402V528.781H510.83Z" fill="white"/>
<path d="M526.06 528.781V503.219H535.166C537.228 503.219 539 503.572 540.483 504.278C541.966 504.96 543.102 505.958 543.889 507.272C544.7 508.563 545.106 510.133 545.106 511.983C545.106 513.785 544.7 515.343 543.889 516.657C543.102 517.948 541.966 518.946 540.483 519.652C539 520.333 537.228 520.674 535.166 520.674H527.485L528.632 519.433V528.781H526.06ZM542.673 528.781L536.417 519.506H539.197L545.488 528.781H542.673ZM528.632 519.652L527.485 518.374H535.096C537.529 518.374 539.371 517.814 540.622 516.694C541.897 515.574 542.534 514.004 542.534 511.983C542.534 509.938 541.897 508.356 540.622 507.236C539.371 506.116 537.529 505.556 535.096 505.556H527.485L528.632 504.278V519.652Z" fill="white"/>
<path d="M561.811 529C559.98 529 558.277 528.683 556.702 528.051C555.149 527.393 553.794 526.48 552.635 525.312C551.5 524.119 550.608 522.743 549.959 521.185C549.334 519.603 549.021 517.875 549.021 516C549.021 514.125 549.334 512.409 549.959 510.851C550.608 509.269 551.5 507.893 552.635 506.725C553.794 505.532 555.149 504.619 556.702 503.986C558.254 503.329 559.957 503 561.811 503C563.641 503 565.333 503.329 566.885 503.986C568.437 504.619 569.781 505.52 570.916 506.688C572.075 507.857 572.967 509.232 573.593 510.815C574.241 512.397 574.566 514.125 574.566 516C574.566 517.875 574.241 519.603 573.593 521.185C572.967 522.768 572.075 524.143 570.916 525.312C569.781 526.48 568.437 527.393 566.885 528.051C565.333 528.683 563.641 529 561.811 529ZM561.811 526.59C563.27 526.59 564.614 526.334 565.842 525.823C567.093 525.287 568.171 524.545 569.075 523.596C570.001 522.622 570.72 521.502 571.229 520.236C571.739 518.946 571.994 517.534 571.994 516C571.994 514.466 571.739 513.066 571.229 511.801C570.72 510.51 570.001 509.39 569.075 508.441C568.171 507.467 567.093 506.725 565.842 506.213C564.614 505.678 563.27 505.41 561.811 505.41C560.351 505.41 558.996 505.678 557.744 506.213C556.493 506.725 555.404 507.467 554.477 508.441C553.574 509.39 552.856 510.51 552.323 511.801C551.813 513.066 551.558 514.466 551.558 516C551.558 517.509 551.813 518.909 552.323 520.199C552.856 521.49 553.574 522.622 554.477 523.596C555.404 524.545 556.493 525.287 557.744 525.823C558.996 526.334 560.351 526.59 561.811 526.59Z" fill="white"/>
<path d="M580.33 528.781V503.219H582.902V526.444H596.526V528.781H580.33Z" fill="white"/>
<path d="M603.09 514.649H615.949V516.949H603.09V514.649ZM603.368 526.444H618V528.781H600.796V503.219H617.479V505.556H603.368V526.444Z" fill="white"/>
</svg>